# xmcd
#
# Track frame offsets:
#	150
#	16502
#	42050
#	60312
#	74280
#	105050
#	122317
#	140010
#	155590
#	174985
#	195717
#	208609
#	222545
#	239430
#	249957
#	277960
#
# Disc length: 4033 seconds
#
# Revision: 3
# Processed by: cddbd v1.5.1PL0 Copyright (c) Steve Scherf et al.
# Submitted via: EasyCDDAExtractor 8.2.0.1
#
DISCID=d00fbf10
DTITLE=Various Artist - Sunday Nights - The Songs Of Junior Kimbrough
DYEAR=2005
DGENRE=Blues
TTITLE0=Iggy And The Stooges - You Better Run [Version #1]
TTITLE1=Spiritualized - Sad Days Lonely Nights
TTITLE2=Blues Explosion - Meet Me In The City
TTITLE3=Heartless Bastards - Done Got Old
TTITLE4=The Black Keys - My Mind Is Ramblin'
TTITLE5=The Fiery Furnaces - I'm Leaving
TTITLE6=Pete Yorn - I Feel Good Again
TTITLE7=Entrance And Cat Power - Do The Romp
TTITLE8=Mark Lanegan - All Night Long
TTITLE9=Thee Shams - Release Me
TTITLE10=Jim White - Done Got Old
TTITLE11=Outrageous Cherry - Lord Have Mercy On Me
TTITLE12=Whitey Kirst - Pull Your Clothes Off
TTITLE13=Jack Oblivian - I'm In Love With You
TTITLE14=The Ponys - Burn In Hell
TTITLE15=Iggy And The Stooges - You Better Run [Version #2]
EXTD=
EXTT0=
EXTT1=
EXTT2=
EXTT3=
EXTT4=
EXTT5=
EXTT6=
EXTT7=
EXTT8=
EXTT9=
EXTT10=
EXTT11=
EXTT12=
EXTT13=
EXTT14=
EXTT15=
PLAYORDER=
